<svg width="43.75" height="35.99" xmlns="http://www.w3.org/2000/svg">

 <title>ICT</title>
 <g>
  <title>Layer 1</title>
  <polygon id="svg_1" fill="#005da4" points="27.12 16.72 29.8 12.01 16.39 12.01 9.5 24.59 22.91 24.59 25.18 20.39 20.58 20.39 20 21.48 15.87 21.48 19.04 15.53 23.17 15.53 22.5 16.72 27.12 16.72" class="cls-1"/>
  <polygon id="svg_2" fill="#005da4" points="9.81 11.91 2.8 24.45 7.25 24.45 14.23 11.91 9.81 11.91" class="cls-1"/>
  <path id="svg_3" fill="#005da4" d="m41,11.91l-9,0l-2.27,3.95l2.27,0l-5,8.59l4.87,0l4.94,-8.59l4.77,0a15.8,15.8 0 0 0 -0.58,-3.95" class="cls-1"/>
  <path id="svg_4" fill="#0095da" d="m23.94,0c-12.12,0 -22.8,8.44 -23.86,18.84a16.3,16.3 0 0 0 0,3.2c0,0.11 0,0.22 0,0.34a7.32,7.32 0 0 0 0.33,1.81l0.06,0.22l0,0c1.2,3.37 4.86,5.82 9.2,5.82a9.92,9.92 0 0 0 8.6,-4.52a10.14,10.14 0 0 1 -8,3.68a9.75,9.75 0 0 1 -8.87,-5l0.5,-0.88l-0.8,0c-0.04,-0.28 -0.1,-0.51 -0.1,-0.78l1.33,0l0.53,-0.93l-2,0c0,-0.24 -0.06,-0.49 -0.07,-0.73l2.49,0l0.52,-0.93l-3.08,0c0,-0.25 0,-0.49 0,-0.74l3.5,0l0.53,-0.93l-3.95,0c0,-0.24 0.06,-0.48 0.09,-0.72l4.27,0l0.53,-0.93l-4.63,0c0.05,-0.25 0.1,-0.5 0.17,-0.74l4.88,0l0.53,-0.93l-5.15,0c0.08,-0.25 0.17,-0.49 0.26,-0.74l5.3,0l0.53,-0.93l-5.45,0c0.1,-0.24 0.22,-0.49 0.34,-0.73l5.53,0l0.52,-0.93l-5.52,0c0.12,-0.21 0.23,-0.41 0.36,-0.61l7.86,0a21.51,21.51 0 0 1 16.64,-7.78c6.34,0 11.65,2.73 14.55,6.91a0.27,0.27 0 0 1 0.1,0.11c-2.96,-6.19 -9.97,-10.45 -18.57,-10.45" class="cls-2"/>
  <path id="svg_5" fill="#005da4" d="m43.75,14.68a9.35,9.35 0 0 0 -9.16,-8.91a9.74,9.74 0 0 0 -8.88,4.51a9.81,9.81 0 0 1 8.29,-3.62c4.58,0.25 8.15,2.94 8.86,7.48a15.73,15.73 0 0 1 0.05,2.48l-5.1,0l-0.53,0.93l5.54,0c0,0.25 -0.06,0.5 -0.1,0.75l-5.88,0l-0.53,0.93l6.19,0c0,0.25 -0.12,0.5 -0.19,0.74l-6.42,0l-0.53,0.94l6.64,0c-0.09,0.25 -0.18,0.49 -0.28,0.74l-6.78,0l-0.53,0.93l7,0c-0.12,0.25 -0.24,0.5 -0.37,0.75l-7.04,0l-0.53,0.93l7,0l-0.39,0.64l-7.7,0a21.58,21.58 0 0 1 -16.58,7.64c-6.36,0 -11.74,-2.66 -14.65,-6.87a1.51,1.51 0 0 1 -0.16,-0.2c3.01,6.24 10.12,10.53 18.75,10.53c12.16,0 22.87,-8.5 23.94,-19a12.06,12.06 0 0 0 0.07,-2.34" class="cls-1"/>
 </g>
</svg>